<svg width="62" height="62" viewBox="0 0 62 62" fill="none" xmlns="http://www.w3.org/2000/svg">
<path d="M1 61V1H61V61H1Z" stroke="white" stroke-width="2"/>
<path d="M18.368 25.144C17.12 25.144 15.92 24.944 14.768 24.544C13.632 24.144 12.752 23.616 12.128 22.96L12.824 21.592C13.432 22.2 14.24 22.696 15.248 23.08C16.256 23.448 17.296 23.632 18.368 23.632C19.872 23.632 21 23.36 21.752 22.816C22.504 22.256 22.88 21.536 22.88 20.656C22.88 19.984 22.672 19.448 22.256 19.048C21.856 18.648 21.36 18.344 20.768 18.136C20.176 17.912 19.352 17.672 18.296 17.416C17.032 17.096 16.024 16.792 15.272 16.504C14.52 16.2 13.872 15.744 13.328 15.136C12.8 14.528 12.536 13.704 12.536 12.664C12.536 11.816 12.76 11.048 13.208 10.36C13.656 9.656 14.344 9.096 15.272 8.68C16.2 8.264 17.352 8.056 18.728 8.056C19.688 8.056 20.624 8.192 21.536 8.464C22.464 8.72 23.264 9.08 23.936 9.544L23.336 10.96C22.632 10.496 21.88 10.152 21.08 9.928C20.28 9.688 19.496 9.568 18.728 9.568C17.256 9.568 16.144 9.856 15.392 10.432C14.656 10.992 14.288 11.72 14.288 12.616C14.288 13.288 14.488 13.832 14.888 14.248C15.304 14.648 15.816 14.96 16.424 15.184C17.048 15.392 17.88 15.624 18.92 15.88C20.152 16.184 21.144 16.488 21.896 16.792C22.664 17.08 23.312 17.528 23.84 18.136C24.368 18.728 24.632 19.536 24.632 20.56C24.632 21.408 24.4 22.184 23.936 22.888C23.488 23.576 22.792 24.128 21.848 24.544C20.904 24.944 19.744 25.144 18.368 25.144ZM38.4616 12.376V29.656H36.7576V22.624C36.2296 23.44 35.5496 24.064 34.7176 24.496C33.9016 24.912 32.9816 25.12 31.9576 25.12C30.7576 25.12 29.6776 24.856 28.7176 24.328C27.7736 23.784 27.0296 23.024 26.4856 22.048C25.9416 21.072 25.6696 19.952 25.6696 18.688C25.6696 17.44 25.9416 16.328 26.4856 15.352C27.0296 14.376 27.7816 13.624 28.7416 13.096C29.7016 12.552 30.7736 12.28 31.9576 12.28C33.0136 12.28 33.9576 12.504 34.7896 12.952C35.6376 13.4 36.3176 14.04 36.8296 14.872V12.376H38.4616ZM32.1016 23.608C32.9816 23.608 33.7736 23.408 34.4776 23.008C35.1976 22.592 35.7576 22.008 36.1576 21.256C36.5736 20.504 36.7816 19.648 36.7816 18.688C36.7816 17.728 36.5736 16.88 36.1576 16.144C35.7576 15.392 35.1976 14.808 34.4776 14.392C33.7736 13.976 32.9816 13.768 32.1016 13.768C31.2056 13.768 30.3976 13.976 29.6776 14.392C28.9736 14.808 28.4136 15.392 27.9976 16.144C27.5976 16.88 27.3976 17.728 27.3976 18.688C27.3976 19.648 27.5976 20.504 27.9976 21.256C28.4136 22.008 28.9736 22.592 29.6776 23.008C30.3976 23.408 31.2056 23.608 32.1016 23.608ZM42.1753 25.12C41.8233 25.12 41.5193 24.992 41.2633 24.736C41.0233 24.48 40.9033 24.168 40.9033 23.8C40.9033 23.432 41.0233 23.128 41.2633 22.888C41.5193 22.632 41.8233 22.504 42.1753 22.504C42.5273 22.504 42.8313 22.632 43.0873 22.888C43.3433 23.128 43.4713 23.432 43.4713 23.8C43.4713 24.168 43.3433 24.48 43.0873 24.736C42.8313 24.992 42.5273 25.12 42.1753 25.12Z" fill="white"/>
</svg>
