<svg width="98" height="98" viewBox="0 0 98 98" fill="none" xmlns="http://www.w3.org/2000/svg">
<path d="M2 96V2H96V96H2Z" stroke="#0F0F0F" stroke-width="4"/>
<path d="M19.052 40.216C17.18 40.216 15.38 39.916 13.652 39.316C11.948 38.716 10.628 37.924 9.692 36.94L10.736 34.888C11.648 35.8 12.86 36.544 14.372 37.12C15.884 37.672 17.444 37.948 19.052 37.948C21.308 37.948 23 37.54 24.128 36.724C25.256 35.884 25.82 34.804 25.82 33.484C25.82 32.476 25.508 31.672 24.884 31.072C24.284 30.472 23.54 30.016 22.652 29.704C21.764 29.368 20.528 29.008 18.944 28.624C17.048 28.144 15.536 27.688 14.408 27.256C13.28 26.8 12.308 26.116 11.492 25.204C10.7 24.292 10.304 23.056 10.304 21.496C10.304 20.224 10.64 19.072 11.312 18.04C11.984 16.984 13.016 16.144 14.408 15.52C15.8 14.896 17.528 14.584 19.592 14.584C21.032 14.584 22.436 14.788 23.804 15.196C25.196 15.58 26.396 16.12 27.404 16.816L26.504 18.94C25.448 18.244 24.32 17.728 23.12 17.392C21.92 17.032 20.744 16.852 19.592 16.852C17.384 16.852 15.716 17.284 14.588 18.148C13.484 18.988 12.932 20.08 12.932 21.424C12.932 22.432 13.232 23.248 13.832 23.872C14.456 24.472 15.224 24.94 16.136 25.276C17.072 25.588 18.32 25.936 19.88 26.32C21.728 26.776 23.216 27.232 24.344 27.688C25.496 28.12 26.468 28.792 27.26 29.704C28.052 30.592 28.448 31.804 28.448 33.34C28.448 34.612 28.1 35.776 27.404 36.832C26.732 37.864 25.688 38.692 24.272 39.316C22.856 39.916 21.116 40.216 19.052 40.216ZM50.9924 21.064V46.984H48.4364V36.436C47.6444 37.66 46.6244 38.596 45.3764 39.244C44.1524 39.868 42.7724 40.18 41.2364 40.18C39.4364 40.18 37.8164 39.784 36.3764 38.992C34.9604 38.176 33.8444 37.036 33.0284 35.572C32.2124 34.108 31.8044 32.428 31.8044 30.532C31.8044 28.66 32.2124 26.992 33.0284 25.528C33.8444 24.064 34.9724 22.936 36.4124 22.144C37.8524 21.328 39.4604 20.92 41.2364 20.92C42.8204 20.92 44.2364 21.256 45.4844 21.928C46.7564 22.6 47.7764 23.56 48.5444 24.808V21.064H50.9924ZM41.4524 37.912C42.7724 37.912 43.9604 37.612 45.0164 37.012C46.0964 36.388 46.9364 35.512 47.5364 34.384C48.1604 33.256 48.4724 31.972 48.4724 30.532C48.4724 29.092 48.1604 27.82 47.5364 26.716C46.9364 25.588 46.0964 24.712 45.0164 24.088C43.9604 23.464 42.7724 23.152 41.4524 23.152C40.1084 23.152 38.8964 23.464 37.8164 24.088C36.7604 24.712 35.9204 25.588 35.2964 26.716C34.6964 27.82 34.3964 29.092 34.3964 30.532C34.3964 31.972 34.6964 33.256 35.2964 34.384C35.9204 35.512 36.7604 36.388 37.8164 37.012C38.8964 37.612 40.1084 37.912 41.4524 37.912ZM58.3629 40.18C57.8349 40.18 57.3789 39.988 56.9949 39.604C56.6349 39.22 56.4549 38.752 56.4549 38.2C56.4549 37.648 56.6349 37.192 56.9949 36.832C57.3789 36.448 57.8349 36.256 58.3629 36.256C58.8909 36.256 59.3469 36.448 59.7309 36.832C60.1149 37.192 60.3069 37.648 60.3069 38.2C60.3069 38.752 60.1149 39.22 59.7309 39.604C59.3469 39.988 58.8909 40.18 58.3629 40.18Z" fill="black"/>
</svg>
